<?xml version="1.0" encoding="UTF-8"?>
<svg xmlns="http://www.w3.org/2000/svg" xmlns:xlink="http://www.w3.org/1999/xlink" width="24px" height="24px" viewBox="0 0 24 24" version="1.1">
<g id="surface1">
<path style=" stroke:none;fill-rule:nonzero;fill:rgb(0%,0%,0%);fill-opacity:1;" d="M 10.90625 0.0703125 C 9.609375 0.253906 8.34375 0.734375 7.269531 1.453125 C 6.476562 1.984375 6.328125 2.207031 6.585938 2.460938 C 6.757812 2.640625 6.886719 2.605469 7.339844 2.269531 C 11.320312 -0.664062 16.882812 0.695312 19.058594 5.132812 C 19.570312 6.179688 19.777344 7.039062 19.8125 8.273438 C 19.84375 9.214844 19.800781 9.683594 19.609375 10.46875 L 19.484375 10.972656 L 19.578125 11.101562 C 19.683594 11.242188 19.902344 11.289062 20.058594 11.203125 C 20.34375 11.054688 20.605469 9.21875 20.527344 7.960938 C 20.277344 4.097656 17.382812 0.851562 13.542969 0.140625 C 12.84375 0.0078125 11.558594 -0.0234375 10.90625 0.0703125 Z M 10.90625 0.0703125 "/>
<path style=" stroke:none;fill-rule:nonzero;fill:rgb(0%,0%,0%);fill-opacity:1;" d="M 11.132812 1.925781 C 9.605469 2.136719 8.253906 2.832031 7.167969 3.96875 C 5.195312 6.03125 4.757812 9.078125 6.074219 11.625 C 6.40625 12.265625 6.820312 12.8125 7.386719 13.359375 C 8.316406 14.253906 9.371094 14.816406 10.679688 15.101562 C 11.289062 15.238281 12.613281 15.25 13.234375 15.125 C 14.621094 14.851562 15.8125 14.195312 16.796875 13.175781 C 17.914062 12.007812 18.539062 10.632812 18.652344 9.046875 C 18.789062 7.105469 18.144531 5.335938 16.796875 3.933594 C 15.816406 2.921875 14.605469 2.253906 13.257812 1.992188 C 12.792969 1.898438 11.59375 1.859375 11.132812 1.925781 Z M 13.152344 2.691406 C 15.546875 3.167969 17.464844 5.128906 17.882812 7.519531 C 17.972656 8.054688 17.972656 9.054688 17.882812 9.589844 C 17.546875 11.503906 16.195312 13.234375 14.421875 14.011719 C 11.5 15.289062 8.109375 14.082031 6.675781 11.234375 C 6.234375 10.363281 6.046875 9.5625 6.046875 8.554688 C 6.046875 7.84375 6.132812 7.28125 6.328125 6.695312 C 6.890625 5.015625 8.148438 3.675781 9.765625 3.023438 C 10.214844 2.839844 10.773438 2.691406 11.230469 2.628906 C 11.648438 2.570312 12.726562 2.605469 13.152344 2.691406 Z M 13.152344 2.691406 "/>
<path style=" stroke:none;fill-rule:nonzero;fill:rgb(0%,0%,0%);fill-opacity:1;" d="M 11.617188 4.078125 C 11.398438 4.132812 11.105469 4.28125 9.28125 5.25 C 8.492188 5.667969 7.800781 6.050781 7.738281 6.109375 C 7.484375 6.34375 7.425781 6.773438 7.601562 7.085938 C 7.679688 7.21875 7.804688 7.332031 8.019531 7.457031 L 8.335938 7.644531 L 8.351562 8.664062 C 8.375 9.828125 8.410156 9.957031 8.796875 10.316406 C 9.121094 10.613281 10.050781 11.015625 10.847656 11.203125 C 11.421875 11.335938 12.558594 11.347656 13.054688 11.222656 C 13.15625 11.195312 13.171875 11.207031 13.171875 11.324219 C 13.167969 11.433594 13.128906 11.484375 12.960938 11.585938 C 12.652344 11.773438 12.496094 12.039062 12.476562 12.421875 C 12.453125 12.78125 12.519531 12.953125 12.792969 13.234375 C 13.421875 13.890625 14.5625 13.398438 14.550781 12.472656 C 14.546875 12.089844 14.324219 11.714844 14.007812 11.550781 C 13.890625 11.488281 13.875 11.457031 13.875 11.230469 C 13.875 10.996094 13.882812 10.976562 14.007812 10.945312 C 14.28125 10.878906 15.003906 10.5 15.203125 10.316406 C 15.320312 10.210938 15.460938 10.011719 15.519531 9.875 C 15.617188 9.652344 15.632812 9.558594 15.648438 8.640625 L 15.664062 7.644531 L 15.984375 7.457031 C 16.234375 7.308594 16.328125 7.222656 16.402344 7.0625 C 16.574219 6.707031 16.503906 6.320312 16.234375 6.089844 C 16.09375 5.972656 13.234375 4.445312 12.695312 4.195312 C 12.394531 4.058594 11.902344 4.007812 11.617188 4.078125 Z M 12.25 4.785156 C 12.347656 4.808594 13.1875 5.234375 14.113281 5.726562 C 15.378906 6.398438 15.796875 6.640625 15.789062 6.699219 C 15.777344 6.742188 15.324219 7.011719 14.652344 7.367188 L 13.53125 7.960938 L 12.765625 7.449219 C 12.34375 7.167969 11.96875 6.9375 11.929688 6.9375 C 11.671875 6.9375 11.46875 7.214844 11.570312 7.429688 C 11.597656 7.496094 11.878906 7.714844 12.210938 7.9375 L 12.800781 8.335938 L 12.648438 8.429688 C 12.183594 8.710938 11.875 8.6875 11.175781 8.328125 C 9.546875 7.496094 8.226562 6.765625 8.210938 6.699219 C 8.203125 6.640625 8.605469 6.402344 9.820312 5.761719 C 11.820312 4.703125 11.875 4.679688 12.25 4.785156 Z M 10.257812 8.644531 C 10.867188 8.96875 11.46875 9.253906 11.59375 9.285156 C 11.949219 9.371094 12.40625 9.320312 12.773438 9.144531 C 12.945312 9.066406 13.105469 9 13.128906 9 C 13.15625 9 13.167969 9.3125 13.164062 9.734375 L 13.148438 10.476562 L 12.867188 10.539062 C 12.464844 10.621094 11.484375 10.617188 11.066406 10.527344 C 10.332031 10.367188 9.378906 9.960938 9.191406 9.722656 C 9.101562 9.605469 9.09375 9.539062 9.09375 8.832031 C 9.09375 8.410156 9.101562 8.0625 9.121094 8.0625 C 9.136719 8.0625 9.648438 8.324219 10.257812 8.644531 Z M 14.90625 8.832031 C 14.90625 9.539062 14.898438 9.605469 14.808594 9.722656 C 14.71875 9.835938 14.035156 10.21875 13.921875 10.21875 C 13.894531 10.21875 13.875 9.929688 13.875 9.402344 L 13.875 8.582031 L 14.359375 8.324219 C 14.621094 8.179688 14.851562 8.0625 14.875 8.0625 C 14.890625 8.0625 14.90625 8.410156 14.90625 8.832031 Z M 13.734375 12.234375 C 13.890625 12.390625 13.875 12.585938 13.707031 12.734375 C 13.5625 12.867188 13.453125 12.871094 13.292969 12.746094 C 13.050781 12.554688 13.1875 12.140625 13.5 12.140625 C 13.578125 12.140625 13.683594 12.183594 13.734375 12.234375 Z M 13.734375 12.234375 "/>
<path style=" stroke:none;fill-rule:nonzero;fill:rgb(0%,0%,0%);fill-opacity:1;" d="M 5.304688 3.265625 C 4.777344 3.90625 4.164062 5.035156 3.894531 5.859375 C 3.519531 7.015625 3.398438 7.992188 3.472656 9.15625 C 3.585938 10.808594 4.175781 12.382812 5.1875 13.726562 C 6.015625 14.816406 9.425781 19.65625 9.390625 19.683594 C 9.371094 19.703125 9.121094 19.753906 8.835938 19.800781 C 7.054688 20.085938 5.773438 20.667969 5.429688 21.347656 C 5.300781 21.589844 5.300781 21.957031 5.429688 22.203125 C 5.945312 23.210938 8.273438 23.898438 11.484375 23.984375 C 14.046875 24.050781 16.566406 23.640625 17.765625 22.953125 C 18.097656 22.765625 18.453125 22.433594 18.570312 22.203125 C 18.695312 21.960938 18.695312 21.582031 18.566406 21.34375 C 18.359375 20.929688 17.722656 20.5 16.898438 20.21875 C 16.433594 20.058594 15.566406 19.851562 15.070312 19.78125 C 14.839844 19.75 14.628906 19.707031 14.609375 19.6875 C 14.585938 19.664062 15.515625 18.328125 16.671875 16.710938 C 17.828125 15.09375 18.890625 13.601562 19.035156 13.402344 C 19.179688 13.195312 19.375 12.898438 19.453125 12.734375 C 19.597656 12.460938 19.601562 12.429688 19.542969 12.304688 C 19.503906 12.230469 19.421875 12.144531 19.355469 12.121094 C 19.117188 12.042969 19.011719 12.113281 18.753906 12.542969 C 18.625 12.765625 18.371094 13.140625 18.191406 13.375 C 18.015625 13.613281 16.640625 15.523438 15.144531 17.625 C 13.621094 19.761719 12.367188 21.484375 12.296875 21.523438 C 12.125 21.632812 11.875 21.632812 11.703125 21.523438 C 11.632812 21.484375 10.382812 19.773438 8.855469 17.625 C 7.359375 15.523438 5.992188 13.613281 5.816406 13.382812 C 5.039062 12.351562 4.585938 11.367188 4.304688 10.101562 C 4.214844 9.695312 4.199219 9.492188 4.199219 8.578125 C 4.195312 7.648438 4.210938 7.460938 4.304688 7.03125 C 4.570312 5.820312 5.066406 4.734375 5.792969 3.789062 C 5.933594 3.609375 6 3.476562 6 3.378906 C 6 3.1875 5.855469 3.046875 5.652344 3.046875 C 5.523438 3.046875 5.460938 3.085938 5.304688 3.265625 Z M 10.496094 21.140625 C 10.808594 21.578125 11.132812 21.988281 11.21875 22.050781 C 11.667969 22.390625 12.332031 22.390625 12.78125 22.050781 C 12.867188 21.988281 13.191406 21.578125 13.5 21.140625 C 14.054688 20.371094 14.070312 20.351562 14.21875 20.371094 C 16.03125 20.605469 17.242188 20.976562 17.765625 21.449219 C 18.027344 21.6875 18.027344 21.867188 17.757812 22.101562 C 16.867188 22.867188 14.222656 23.363281 11.460938 23.277344 C 9.652344 23.226562 8.375 23.023438 7.238281 22.617188 C 6.476562 22.351562 6.046875 22.039062 6.046875 21.773438 C 6.046875 21.242188 7.660156 20.628906 9.726562 20.375 C 9.804688 20.367188 9.882812 20.351562 9.898438 20.347656 C 9.914062 20.347656 10.1875 20.699219 10.496094 21.140625 Z M 10.496094 21.140625 "/>
</g>
</svg>
